<svg width="32" height="32" viewBox="0 0 32 32" fill="none" xmlns="http://www.w3.org/2000/svg">
<g clip-path="url(#clip0_446_1533)">
<path d="M18.3559 21.0581L16.2379 23.7081C12.9564 21.7785 10.2215 19.0436 8.29191 15.7621L10.9419 13.6441C11.2524 13.3955 11.4718 13.0511 11.5659 12.6647C11.66 12.2782 11.6234 11.8715 11.4619 11.5081L9.04792 6.07206C8.87486 5.68211 8.56893 5.36631 8.18468 5.18096C7.80042 4.9956 7.36282 4.95276 6.94991 5.06006L2.34992 6.26006C1.91978 6.36999 1.54545 6.635 1.29884 7.00417C1.05224 7.37334 0.950762 7.82062 1.01392 8.26006C1.82177 14.0025 4.47722 19.3258 8.57879 23.4252C12.6804 27.5246 18.0051 30.1772 23.7479 30.9821C24.1874 31.0452 24.6346 30.9437 25.0038 30.6971C25.373 30.4505 25.638 30.0762 25.7479 29.6461L26.9479 25.0461C27.0547 24.6334 27.0116 24.1963 26.8263 23.8125C26.6409 23.4287 26.3254 23.1231 25.9359 22.9501L20.4919 20.5401C20.1287 20.3784 19.7221 20.3415 19.3357 20.4352C18.9493 20.5289 18.6047 20.7479 18.3559 21.0581Z" stroke="#EE1C7F" stroke-width="2" stroke-linecap="round" stroke-linejoin="round"/>
<path d="M24 1.00001C22.8209 0.998344 21.6605 1.29499 20.6268 1.86236C19.5931 2.42972 18.7198 3.24935 18.088 4.24498C17.4563 5.24061 17.0866 6.37987 17.0136 7.55675C16.9405 8.73363 17.1663 9.90987 17.67 10.976L17 15L21.024 14.33C21.9734 14.7782 23.0114 15.0071 24.0613 14.9998C25.1111 14.9925 26.1458 14.7491 27.0889 14.2877C28.0319 13.8263 28.8591 13.1587 29.5092 12.3343C30.1592 11.5099 30.6155 10.5499 30.8443 9.52524C31.073 8.5006 31.0684 7.43763 30.8307 6.41504C30.593 5.39244 30.1283 4.43641 29.471 3.61773C28.8138 2.79906 27.9808 2.13871 27.0337 1.68558C26.0867 1.23245 25.0499 0.998141 24 1.00001Z" stroke="#EE1C7F" stroke-width="2" stroke-linecap="round" stroke-linejoin="round"/>
</g>
<defs>
<clipPath id="clip0_446_1533">
<rect width="32" height="32" fill="white"/>
</clipPath>
</defs>
</svg>
