<svg width="32" height="32" viewBox="0 0 32 32" fill="none" xmlns="http://www.w3.org/2000/svg">
<rect width="32" height="32" rx="16" fill="white" fill-opacity="0.15"/>
<g clip-path="url(#clip0_459_1230)">
<path d="M21.475 10H10.525C10.225 10 10 10.225 10 10.525V21.55C10 21.775 10.225 22 10.525 22H21.55C21.85 22 22.075 21.775 22.075 21.475V10.525C22 10.225 21.775 10 21.475 10ZM13.525 20.2H11.8V14.5H13.6V20.2H13.525ZM12.7 13.75C12.1 13.75 11.65 13.225 11.65 12.7C11.65 12.1 12.1 11.65 12.7 11.65C13.3 11.65 13.75 12.1 13.75 12.7C13.675 13.225 13.225 13.75 12.7 13.75ZM20.2 20.2H18.4V17.425C18.4 16.75 18.4 15.925 17.5 15.925C16.6 15.925 16.45 16.675 16.45 17.425V20.275H14.65V14.5H16.375V15.25C16.6 14.8 17.2 14.35 18.025 14.35C19.825 14.35 20.125 15.55 20.125 17.05V20.2H20.2Z" fill="white"/>
</g>
<defs>
<clipPath id="clip0_459_1230">
<rect width="12" height="12" fill="white" transform="translate(10 10)"/>
</clipPath>
</defs>
</svg>
