<svg width="64" height="64" viewBox="0 0 64 64" fill="none" xmlns="http://www.w3.org/2000/svg">
<circle cx="32" cy="32" r="32" fill="#EFDEE6"/>
<g clip-path="url(#clip0_274_1359)">
<path d="M43.625 25.2194L38.625 21.2194C38.4779 21.1016 38.3005 21.0278 38.1133 21.0064C37.9261 20.9851 37.7367 21.0171 37.5668 21.0987C37.397 21.1803 37.2537 21.3083 37.1534 21.4678C37.0531 21.6273 36.9999 21.8119 37 22.0004V25.0004H24C23.2044 25.0004 22.4413 25.3164 21.8787 25.8791C21.3161 26.4417 21 27.2047 21 28.0004V31.0004C21 31.2656 21.1054 31.5199 21.2929 31.7075C21.4804 31.895 21.7348 32.0004 22 32.0004C22.2652 32.0004 22.5196 31.895 22.7071 31.7075C22.8946 31.5199 23 31.2656 23 31.0004V28.0004C23 27.7352 23.1054 27.4808 23.2929 27.2933C23.4804 27.1057 23.7348 27.0004 24 27.0004H37V30.0004C36.9999 30.1888 37.0531 30.3734 37.1534 30.533C37.2537 30.6925 37.397 30.8204 37.5668 30.9021C37.7367 30.9837 37.9261 31.0157 38.1133 30.9943C38.3005 30.973 38.4779 30.8991 38.625 30.7814L43.625 26.7814C43.7422 26.6877 43.8367 26.5689 43.9017 26.4337C43.9667 26.2985 44.0005 26.1504 44.0005 26.0004C44.0005 25.8504 43.9667 25.7023 43.9017 25.5671C43.8367 25.4319 43.7422 25.3131 43.625 25.2194Z" fill="#EE1C7F"/>
<path d="M42.0005 32C41.7353 32 41.4809 32.1054 41.2934 32.2929C41.1058 32.4804 41.0005 32.7348 41.0005 33V36C41.0005 36.2652 40.8951 36.5196 40.7076 36.7071C40.52 36.8946 40.2657 37 40.0005 37H27.0005V34C27.0005 33.8116 26.9474 33.627 26.8471 33.4674C26.7468 33.3079 26.6035 33.1799 26.4337 33.0983C26.2638 33.0167 26.0744 32.9847 25.8872 33.0061C25.6999 33.0274 25.5226 33.1012 25.3755 33.219L20.3755 37.219C20.2583 37.3127 20.1637 37.4315 20.0987 37.5667C20.0337 37.7019 20 37.85 20 38C20 38.15 20.0337 38.2981 20.0987 38.4333C20.1637 38.5685 20.2583 38.6873 20.3755 38.781L25.3755 42.781C25.5226 42.8988 25.6999 42.9726 25.8872 42.9939C26.0744 43.0153 26.2638 42.9833 26.4337 42.9017C26.6035 42.8201 26.7468 42.6921 26.8471 42.5326C26.9474 42.373 27.0005 42.1884 27.0005 42V39H40.0005C40.7961 39 41.5592 38.6839 42.1218 38.1213C42.6844 37.5587 43.0005 36.7956 43.0005 36V33C43.0005 32.7348 42.8951 32.4804 42.7076 32.2929C42.52 32.1054 42.2657 32 42.0005 32Z" fill="#EE1C7F"/>
</g>
<defs>
<clipPath id="clip0_274_1359">
<rect width="24" height="24" fill="white" transform="translate(20 20)"/>
</clipPath>
</defs>
</svg>
