<svg width="64" height="64" viewBox="0 0 64 64" fill="none" xmlns="http://www.w3.org/2000/svg">
<circle cx="32" cy="32" r="32" fill="#EFDEE6"/>
<g clip-path="url(#clip0_276_1376)">
<path d="M36.5362 33.4096C36.3476 33.2275 36.095 33.1267 35.8328 33.1289C35.5706 33.1312 35.3198 33.2364 35.1344 33.4218C34.949 33.6072 34.8438 33.858 34.8415 34.1202C34.8392 34.3824 34.94 34.635 35.1222 34.8236L37.9422 37.6436L36.6252 38.9606L33.8052 36.1406C33.7129 36.0451 33.6026 35.9689 33.4806 35.9165C33.3586 35.8641 33.2274 35.8365 33.0946 35.8354C32.9618 35.8342 32.8301 35.8595 32.7072 35.9098C32.5843 35.9601 32.4727 36.0343 32.3788 36.1282C32.2849 36.2221 32.2106 36.3338 32.1604 36.4567C32.1101 36.5796 32.0848 36.7112 32.0859 36.844C32.0871 36.9768 32.1147 37.108 32.1671 37.23C32.2195 37.352 32.2957 37.4624 32.3912 37.5546L34.9482 40.1126C34.2273 40.4132 33.4465 40.5423 32.6672 40.4896C32.5979 41.196 32.3193 41.8655 31.8672 42.4126C32.2422 42.4763 32.6218 42.5098 33.0022 42.5126C33.9214 42.514 34.8318 42.3339 35.6813 41.9826C36.5307 41.6314 37.3024 41.1158 37.9522 40.4656L40.0602 38.3296C40.2459 38.1414 40.3496 37.8873 40.3485 37.6229C40.3474 37.3584 40.2415 37.1052 40.0542 36.9186L36.5362 33.4096Z" fill="#EE1C7F"/>
<path d="M21.821 32.8558C22.1189 32.5649 22.465 32.3281 22.844 32.1558C22.2494 31.1608 21.9531 30.0161 21.9902 28.8576C22.0273 27.6991 22.3963 26.5756 23.0533 25.6207C23.7103 24.6658 24.6277 23.9197 25.6964 23.471C26.7652 23.0224 27.9403 22.89 29.082 23.0898L29.515 22.6568C29.9384 22.2325 30.4023 21.8507 30.9 21.5168C29.3063 20.9184 27.5641 20.8395 25.9228 21.2913C24.2815 21.7431 22.8251 22.7026 21.7621 24.0323C20.6992 25.362 20.0841 26.9939 20.0048 28.6944C19.9256 30.395 20.3863 32.077 21.321 33.4998C21.463 33.267 21.6307 33.051 21.821 32.8558Z" fill="#EE1C7F"/>
<path d="M30.9391 38.2809L26.2213 33.5631C25.2016 32.5434 23.5484 32.5434 22.5287 33.5631C21.5091 34.5827 21.5091 36.2359 22.5287 37.2556L27.2466 41.9734C28.2662 42.993 29.9194 42.993 30.9391 41.9734C31.9587 40.9537 31.9587 39.3005 30.9391 38.2809Z" fill="#EE1C7F"/>
<path d="M41.6369 23.3639C40.1233 21.8503 38.0705 21 35.9299 21C33.7894 21 31.7365 21.8503 30.2229 23.3639L25.5859 27.9999L26.2939 28.7069C26.8798 29.2913 27.6735 29.6195 28.5009 29.6195C29.3284 29.6195 30.1221 29.2913 30.7079 28.7069L32.5009 26.9159L40.9249 35.4919L41.6389 34.7779C43.1525 33.2643 44.0028 31.2114 44.0028 29.0709C44.0028 26.9303 43.1525 24.8775 41.6389 23.3639H41.6369Z" fill="#EE1C7F"/>
</g>
<defs>
<clipPath id="clip0_276_1376">
<rect width="24" height="24" fill="white" transform="translate(20 20)"/>
</clipPath>
</defs>
</svg>
