<svg width="24" height="24" viewBox="0 0 24 24" fill="none" xmlns="http://www.w3.org/2000/svg">
<path d="M12 15C15.866 15 19 11.866 19 8C19 4.13401 15.866 1 12 1C8.13401 1 5 4.13401 5 8C5 11.866 8.13401 15 12 15Z" stroke="#EE1C7F" stroke-width="2" stroke-miterlimit="10" stroke-linecap="square"/>
<path d="M8 23C11.866 23 15 19.866 15 16C15 12.134 11.866 9 8 9C4.13401 9 1 12.134 1 16C1 19.866 4.13401 23 8 23Z" stroke="#EE1C7F" stroke-width="2" stroke-miterlimit="10" stroke-linecap="square"/>
<path d="M16 23C19.866 23 23 19.866 23 16C23 12.134 19.866 9 16 9C12.134 9 9 12.134 9 16C9 19.866 12.134 23 16 23Z" stroke="#EE1C7F" stroke-width="2" stroke-miterlimit="10" stroke-linecap="square"/>
</svg>
