<svg width="64" height="64" viewBox="0 0 64 64" fill="none" xmlns="http://www.w3.org/2000/svg">
<circle cx="32" cy="32" r="32" fill="#EFDEE6"/>
<path d="M27 26V24H24V21C24 20.448 23.552 20 23 20C22.448 20 22 20.448 22 21V41C22 41.552 22.448 42 23 42H27V40H24V34H27V32H24V26H27Z" fill="#EE1C7F"/>
<path d="M41 28H30C29.448 28 29 27.552 29 27V23C29 22.448 29.448 22 30 22H41C41.552 22 42 22.448 42 23V27C42 27.552 41.552 28 41 28Z" fill="#EE1C7F"/>
<path d="M41 44H30C29.448 44 29 43.553 29 43V39C29 38.447 29.448 38 30 38H41C41.552 38 42 38.447 42 39V43C42 43.553 41.552 44 41 44Z" fill="#EE1C7F"/>
<path d="M41 36H30C29.448 36 29 35.553 29 35V31C29 30.448 29.448 30 30 30H41C41.552 30 42 30.448 42 31V35C42 35.553 41.552 36 41 36Z" fill="#EE1C7F"/>
</svg>
