<svg width="24" height="24" viewBox="0 0 24 24" fill="none" xmlns="http://www.w3.org/2000/svg">
<path d="M14 8.00005L11.828 10.172C11.0779 10.9219 10.0607 11.3432 9 11.3432C7.93934 11.3432 6.92211 10.9219 6.172 10.172L6 10L10.929 5.07105C12.2552 3.74519 14.0537 3.00037 15.929 3.00037C17.8043 3.00037 19.6028 3.74519 20.929 5.07105C22.0427 6.18485 22.7528 7.63848 22.9468 9.20157C23.1408 10.7647 22.8076 12.3478 22 13.7" stroke="#EE1C7F" stroke-width="2" stroke-miterlimit="10" stroke-linecap="square"/>
<path d="M15.2659 11.266L18.8789 14.879C19.4413 15.4416 19.7573 16.2045 19.7573 17C19.7573 17.7955 19.4413 18.5584 18.8789 19.121L17.2429 20.757C16.6858 21.3143 16.0243 21.7563 15.2963 22.0579C14.5682 22.3595 13.7879 22.5147 12.9999 22.5147C12.2119 22.5147 11.4316 22.3595 10.7036 22.0579C9.97557 21.7563 9.31409 21.3143 8.75693 20.757L3.07093 15.071C1.74507 13.7448 1.00024 11.9463 1.00024 10.071C1.00024 8.19571 1.74507 6.3972 3.07093 5.071C4.37817 3.76011 6.1487 3.01619 7.99993 3" stroke="#EE1C7F" stroke-width="2" stroke-miterlimit="10" stroke-linecap="square"/>
<path d="M18.391 19.609L14.5 15.719" stroke="#EE1C7F" stroke-width="2" stroke-miterlimit="10"/>
<path d="M15.5128 21.965L11.8828 18.335" stroke="#EE1C7F" stroke-width="2" stroke-miterlimit="10"/>
</svg>
