<svg width="32" height="32" viewBox="0 0 32 32" fill="none" xmlns="http://www.w3.org/2000/svg">
<path d="M8 13C10.7614 13 13 10.7614 13 8C13 5.23858 10.7614 3 8 3C5.23858 3 3 5.23858 3 8C3 10.7614 5.23858 13 8 13Z" stroke="#EE1C7F" stroke-width="2" stroke-linecap="round" stroke-linejoin="round"/>
<path d="M24 29C26.7614 29 29 26.7614 29 24C29 21.2386 26.7614 19 24 19C21.2386 19 19 21.2386 19 24C19 26.7614 21.2386 29 24 29Z" stroke="#EE1C7F" stroke-width="2" stroke-linecap="round" stroke-linejoin="round"/>
<path d="M19 3H29V13" stroke="#EE1C7F" stroke-width="2" stroke-linecap="round" stroke-linejoin="round"/>
<path d="M29 3L3 29" stroke="#EE1C7F" stroke-width="2" stroke-linecap="round" stroke-linejoin="round"/>
</svg>
